<svg xmlns="http://www.w3.org/2000/svg" width="920" height="640" viewBox="0 0 920 640" font-family="system-ui,sans-serif">
<rect x="0" y="0" width="920" height="640" rx="0" fill="#0e1116"/>
<rect x="0" y="0" width="920" height="44" rx="0" fill="#161b22"/>
<text x="24" y="28" font-family="system-ui,-apple-system,sans-serif" font-size="16" fill="#e6edf3" text-anchor="start" font-weight="600">C · Hybrid — big focused ring + live thumbnail strip</text>
<text x="896" y="28" font-family="system-ui,-apple-system,sans-serif" font-size="12" fill="#8b97a7" text-anchor="end" font-weight="400">FH-2 FORGE · Euclidean</text>
<rect x="24" y="64" width="872" height="360" rx="8" fill="#161b22" stroke="#2d3643" stroke-width="1"/>
<circle cx="230" cy="244" r="118" fill="none" stroke="#2d3643" stroke-width="1.5"/>
<circle cx="230.0" cy="126.0" r="11.0" fill="#6ee7ff" stroke="#6ee7ff" stroke-width="1.6"/>
<circle cx="313.4" cy="160.6" r="11.0" fill="none" stroke="#8b97a7" stroke-width="1.6"/>
<circle cx="348.0" cy="244.0" r="11.0" fill="#6ee7ff" stroke="#6ee7ff" stroke-width="1.6"/>
<circle cx="313.4" cy="327.4" r="11.0" fill="#ffd36e" stroke="#ffd36e" stroke-width="1.6"/>
<circle cx="230.0" cy="362.0" r="11.0" fill="none" stroke="#8b97a7" stroke-width="1.6"/>
<circle cx="146.6" cy="327.4" r="11.0" fill="#6ee7ff" stroke="#6ee7ff" stroke-width="1.6"/>
<circle cx="112.0" cy="244.0" r="11.0" fill="#6ee7ff" stroke="#6ee7ff" stroke-width="1.6"/>
<circle cx="146.6" cy="160.6" r="11.0" fill="none" stroke="#8b97a7" stroke-width="1.6"/>
<text x="230" y="249" font-family="ui-monospace,Menlo,monospace" font-size="24" fill="#e6edf3" text-anchor="middle" font-weight="600">5/8</text>
<text x="230" y="100" font-family="system-ui,-apple-system,sans-serif" font-size="15" fill="#e6edf3" text-anchor="middle" font-weight="600">Generator 5</text>
<rect x="440" y="110" width="200" height="50" rx="6" fill="#1c2430" stroke="#2d3643" stroke-width="1"/>
<text x="452" y="130" font-family="system-ui,-apple-system,sans-serif" font-size="11" fill="#8b97a7" text-anchor="start" font-weight="400">Pulses</text>
<text x="452" y="150" font-family="ui-monospace,Menlo,monospace" font-size="16" fill="#6ee7ff" text-anchor="start" font-weight="600">5</text>
<rect x="655" y="110" width="200" height="50" rx="6" fill="#1c2430" stroke="#2d3643" stroke-width="1"/>
<text x="667" y="130" font-family="system-ui,-apple-system,sans-serif" font-size="11" fill="#8b97a7" text-anchor="start" font-weight="400">Steps</text>
<text x="667" y="150" font-family="ui-monospace,Menlo,monospace" font-size="16" fill="#6ee7ff" text-anchor="start" font-weight="600">8</text>
<rect x="440" y="174" width="200" height="50" rx="6" fill="#1c2430" stroke="#2d3643" stroke-width="1"/>
<text x="452" y="194" font-family="system-ui,-apple-system,sans-serif" font-size="11" fill="#8b97a7" text-anchor="start" font-weight="400">Rotation</text>
<text x="452" y="214" font-family="ui-monospace,Menlo,monospace" font-size="16" fill="#6ee7ff" text-anchor="start" font-weight="600">0</text>
<rect x="655" y="174" width="200" height="50" rx="6" fill="#1c2430" stroke="#2d3643" stroke-width="1"/>
<text x="667" y="194" font-family="system-ui,-apple-system,sans-serif" font-size="11" fill="#8b97a7" text-anchor="start" font-weight="400">Rate</text>
<text x="667" y="214" font-family="ui-monospace,Menlo,monospace" font-size="16" fill="#6ee7ff" text-anchor="start" font-weight="600">1/16</text>
<rect x="440" y="238" width="200" height="50" rx="6" fill="#1c2430" stroke="#2d3643" stroke-width="1"/>
<text x="452" y="258" font-family="system-ui,-apple-system,sans-serif" font-size="11" fill="#8b97a7" text-anchor="start" font-weight="400">Gate len</text>
<text x="452" y="278" font-family="ui-monospace,Menlo,monospace" font-size="16" fill="#6ee7ff" text-anchor="start" font-weight="600">50%</text>
<rect x="655" y="238" width="200" height="50" rx="6" fill="#1c2430" stroke="#2d3643" stroke-width="1"/>
<text x="667" y="258" font-family="system-ui,-apple-system,sans-serif" font-size="11" fill="#8b97a7" text-anchor="start" font-weight="400">Accent</text>
<text x="667" y="278" font-family="ui-monospace,Menlo,monospace" font-size="16" fill="#6ee7ff" text-anchor="start" font-weight="600">every 4</text>
<rect x="440" y="302" width="200" height="50" rx="6" fill="#1c2430" stroke="#2d3643" stroke-width="1"/>
<text x="452" y="322" font-family="system-ui,-apple-system,sans-serif" font-size="11" fill="#8b97a7" text-anchor="start" font-weight="400">Reset</text>
<text x="452" y="342" font-family="ui-monospace,Menlo,monospace" font-size="16" fill="#6ee7ff" text-anchor="start" font-weight="600">off</text>
<rect x="655" y="302" width="200" height="50" rx="6" fill="#1c2430" stroke="#2d3643" stroke-width="1"/>
<text x="667" y="322" font-family="system-ui,-apple-system,sans-serif" font-size="11" fill="#8b97a7" text-anchor="start" font-weight="400">Output</text>
<text x="667" y="342" font-family="ui-monospace,Menlo,monospace" font-size="16" fill="#6ee7ff" text-anchor="start" font-weight="600">CV 5</text>
<rect x="60" y="392" width="110" height="22" rx="11" fill="#1c2430" stroke="#6ee7ff" stroke-width="1"/>
<text x="115" y="407" font-family="system-ui,-apple-system,sans-serif" font-size="12" fill="#6ee7ff" text-anchor="middle" font-weight="400">▶ preview</text>
<text x="190" y="407" font-family="system-ui,-apple-system,sans-serif" font-size="11" fill="#8b97a7" text-anchor="start" font-weight="400">tempo 120 · in-browser only</text>
<rect x="24" y="440" width="872" height="180" rx="8" fill="#161b22" stroke="#2d3643" stroke-width="1"/>
<text x="40" y="466" font-family="system-ui,-apple-system,sans-serif" font-size="11" fill="#8b97a7" text-anchor="start" font-weight="600">ALL 16 · live</text>
<circle cx="62" cy="524" r="18" fill="none" stroke="#2d3643" stroke-width="1.5"/>
<circle cx="62.0" cy="506.0" r="2.4" fill="#6ee7ff" stroke="#6ee7ff" stroke-width="1.6"/>
<circle cx="74.7" cy="511.3" r="2.4" fill="none" stroke="#8b97a7" stroke-width="1.6"/>
<circle cx="80.0" cy="524.0" r="2.4" fill="#6ee7ff" stroke="#6ee7ff" stroke-width="1.6"/>
<circle cx="74.7" cy="536.7" r="2.4" fill="#6ee7ff" stroke="#6ee7ff" stroke-width="1.6"/>
<circle cx="62.0" cy="542.0" r="2.4" fill="none" stroke="#8b97a7" stroke-width="1.6"/>
<circle cx="49.3" cy="536.7" r="2.4" fill="#6ee7ff" stroke="#6ee7ff" stroke-width="1.6"/>
<circle cx="44.0" cy="524.0" r="2.4" fill="#6ee7ff" stroke="#6ee7ff" stroke-width="1.6"/>
<circle cx="49.3" cy="511.3" r="2.4" fill="none" stroke="#8b97a7" stroke-width="1.6"/>
<text x="62" y="580" font-family="ui-monospace,Menlo,monospace" font-size="11" fill="#e6edf3" text-anchor="middle" font-weight="400">1</text>
<circle cx="115" cy="524" r="18" fill="none" stroke="#2d3643" stroke-width="1.5"/>
<circle cx="115.0" cy="506.0" r="2.4" fill="#6ee7ff" stroke="#6ee7ff" stroke-width="1.6"/>
<circle cx="127.7" cy="511.3" r="2.4" fill="none" stroke="#8b97a7" stroke-width="1.6"/>
<circle cx="133.0" cy="524.0" r="2.4" fill="none" stroke="#8b97a7" stroke-width="1.6"/>
<circle cx="127.7" cy="536.7" r="2.4" fill="#6ee7ff" stroke="#6ee7ff" stroke-width="1.6"/>
<circle cx="115.0" cy="542.0" r="2.4" fill="none" stroke="#8b97a7" stroke-width="1.6"/>
<circle cx="102.3" cy="536.7" r="2.4" fill="none" stroke="#8b97a7" stroke-width="1.6"/>
<circle cx="97.0" cy="524.0" r="2.4" fill="#6ee7ff" stroke="#6ee7ff" stroke-width="1.6"/>
<circle cx="102.3" cy="511.3" r="2.4" fill="none" stroke="#8b97a7" stroke-width="1.6"/>
<text x="115" y="580" font-family="ui-monospace,Menlo,monospace" font-size="11" fill="#e6edf3" text-anchor="middle" font-weight="400">2</text>
<circle cx="168" cy="524" r="18" fill="none" stroke="#2d3643" stroke-width="1.5"/>
<circle cx="168.0" cy="506.0" r="2.4" fill="#6ee7ff" stroke="#6ee7ff" stroke-width="1.6"/>
<circle cx="174.9" cy="507.4" r="2.4" fill="none" stroke="#8b97a7" stroke-width="1.6"/>
<circle cx="180.7" cy="511.3" r="2.4" fill="none" stroke="#8b97a7" stroke-width="1.6"/>
<circle cx="184.6" cy="517.1" r="2.4" fill="none" stroke="#8b97a7" stroke-width="1.6"/>
<circle cx="186.0" cy="524.0" r="2.4" fill="#6ee7ff" stroke="#6ee7ff" stroke-width="1.6"/>
<circle cx="184.6" cy="530.9" r="2.4" fill="none" stroke="#8b97a7" stroke-width="1.6"/>
<circle cx="180.7" cy="536.7" r="2.4" fill="none" stroke="#8b97a7" stroke-width="1.6"/>
<circle cx="174.9" cy="540.6" r="2.4" fill="none" stroke="#8b97a7" stroke-width="1.6"/>
<circle cx="168.0" cy="542.0" r="2.4" fill="#6ee7ff" stroke="#6ee7ff" stroke-width="1.6"/>
<circle cx="161.1" cy="540.6" r="2.4" fill="none" stroke="#8b97a7" stroke-width="1.6"/>
<circle cx="155.3" cy="536.7" r="2.4" fill="none" stroke="#8b97a7" stroke-width="1.6"/>
<circle cx="151.4" cy="530.9" r="2.4" fill="none" stroke="#8b97a7" stroke-width="1.6"/>
<circle cx="150.0" cy="524.0" r="2.4" fill="#6ee7ff" stroke="#6ee7ff" stroke-width="1.6"/>
<circle cx="151.4" cy="517.1" r="2.4" fill="none" stroke="#8b97a7" stroke-width="1.6"/>
<circle cx="155.3" cy="511.3" r="2.4" fill="none" stroke="#8b97a7" stroke-width="1.6"/>
<circle cx="161.1" cy="507.4" r="2.4" fill="none" stroke="#8b97a7" stroke-width="1.6"/>
<text x="168" y="580" font-family="ui-monospace,Menlo,monospace" font-size="11" fill="#e6edf3" text-anchor="middle" font-weight="400">3</text>
<circle cx="221" cy="524" r="18" fill="none" stroke="#2d3643" stroke-width="1.5"/>
<circle cx="221.0" cy="506.0" r="2.4" fill="none" stroke="#8b97a7" stroke-width="1.6"/>
<circle cx="227.9" cy="507.4" r="2.4" fill="#6ee7ff" stroke="#6ee7ff" stroke-width="1.6"/>
<circle cx="233.7" cy="511.3" r="2.4" fill="none" stroke="#8b97a7" stroke-width="1.6"/>
<circle cx="237.6" cy="517.1" r="2.4" fill="#6ee7ff" stroke="#6ee7ff" stroke-width="1.6"/>
<circle cx="239.0" cy="524.0" r="2.4" fill="none" stroke="#8b97a7" stroke-width="1.6"/>
<circle cx="237.6" cy="530.9" r="2.4" fill="#6ee7ff" stroke="#6ee7ff" stroke-width="1.6"/>
<circle cx="233.7" cy="536.7" r="2.4" fill="none" stroke="#8b97a7" stroke-width="1.6"/>
<circle cx="227.9" cy="540.6" r="2.4" fill="none" stroke="#8b97a7" stroke-width="1.6"/>
<circle cx="221.0" cy="542.0" r="2.4" fill="#6ee7ff" stroke="#6ee7ff" stroke-width="1.6"/>
<circle cx="214.1" cy="540.6" r="2.4" fill="none" stroke="#8b97a7" stroke-width="1.6"/>
<circle cx="208.3" cy="536.7" r="2.4" fill="#6ee7ff" stroke="#6ee7ff" stroke-width="1.6"/>
<circle cx="204.4" cy="530.9" r="2.4" fill="none" stroke="#8b97a7" stroke-width="1.6"/>
<circle cx="203.0" cy="524.0" r="2.4" fill="#6ee7ff" stroke="#6ee7ff" stroke-width="1.6"/>
<circle cx="204.4" cy="517.1" r="2.4" fill="none" stroke="#8b97a7" stroke-width="1.6"/>
<circle cx="208.3" cy="511.3" r="2.4" fill="#6ee7ff" stroke="#6ee7ff" stroke-width="1.6"/>
<circle cx="214.1" cy="507.4" r="2.4" fill="none" stroke="#8b97a7" stroke-width="1.6"/>
<text x="221" y="580" font-family="ui-monospace,Menlo,monospace" font-size="11" fill="#e6edf3" text-anchor="middle" font-weight="400">4</text>
<rect x="250" y="476" width="48" height="120" rx="6" fill="#13313a" stroke="#6ee7ff" stroke-width="1"/>
<circle cx="274" cy="524" r="18" fill="none" stroke="#2d3643" stroke-width="1.5"/>
<circle cx="274.0" cy="506.0" r="2.4" fill="#6ee7ff" stroke="#6ee7ff" stroke-width="1.6"/>
<circle cx="291.1" cy="518.4" r="2.4" fill="none" stroke="#8b97a7" stroke-width="1.6"/>
<circle cx="284.6" cy="538.6" r="2.4" fill="#6ee7ff" stroke="#6ee7ff" stroke-width="1.6"/>
<circle cx="263.4" cy="538.6" r="2.4" fill="none" stroke="#8b97a7" stroke-width="1.6"/>
<circle cx="256.9" cy="518.4" r="2.4" fill="none" stroke="#8b97a7" stroke-width="1.6"/>
<text x="274" y="580" font-family="ui-monospace,Menlo,monospace" font-size="11" fill="#e6edf3" text-anchor="middle" font-weight="400">5</text>
<circle cx="327" cy="524" r="18" fill="none" stroke="#2d3643" stroke-width="1.5"/>
<circle cx="327.0" cy="506.0" r="2.4" fill="#6ee7ff" stroke="#6ee7ff" stroke-width="1.6"/>
<circle cx="333.9" cy="507.4" r="2.4" fill="none" stroke="#8b97a7" stroke-width="1.6"/>
<circle cx="339.7" cy="511.3" r="2.4" fill="#6ee7ff" stroke="#6ee7ff" stroke-width="1.6"/>
<circle cx="343.6" cy="517.1" r="2.4" fill="#6ee7ff" stroke="#6ee7ff" stroke-width="1.6"/>
<circle cx="345.0" cy="524.0" r="2.4" fill="none" stroke="#8b97a7" stroke-width="1.6"/>
<circle cx="343.6" cy="530.9" r="2.4" fill="#6ee7ff" stroke="#6ee7ff" stroke-width="1.6"/>
<circle cx="339.7" cy="536.7" r="2.4" fill="none" stroke="#8b97a7" stroke-width="1.6"/>
<circle cx="333.9" cy="540.6" r="2.4" fill="#6ee7ff" stroke="#6ee7ff" stroke-width="1.6"/>
<circle cx="327.0" cy="542.0" r="2.4" fill="none" stroke="#8b97a7" stroke-width="1.6"/>
<circle cx="320.1" cy="540.6" r="2.4" fill="#6ee7ff" stroke="#6ee7ff" stroke-width="1.6"/>
<circle cx="314.3" cy="536.7" r="2.4" fill="#6ee7ff" stroke="#6ee7ff" stroke-width="1.6"/>
<circle cx="310.4" cy="530.9" r="2.4" fill="none" stroke="#8b97a7" stroke-width="1.6"/>
<circle cx="309.0" cy="524.0" r="2.4" fill="#6ee7ff" stroke="#6ee7ff" stroke-width="1.6"/>
<circle cx="310.4" cy="517.1" r="2.4" fill="none" stroke="#8b97a7" stroke-width="1.6"/>
<circle cx="314.3" cy="511.3" r="2.4" fill="#6ee7ff" stroke="#6ee7ff" stroke-width="1.6"/>
<circle cx="320.1" cy="507.4" r="2.4" fill="none" stroke="#8b97a7" stroke-width="1.6"/>
<text x="327" y="580" font-family="ui-monospace,Menlo,monospace" font-size="11" fill="#e6edf3" text-anchor="middle" font-weight="400">6</text>
<circle cx="380" cy="524" r="18" fill="none" stroke="#2d3643" stroke-width="1.5"/>
<circle cx="380.0" cy="506.0" r="2.4" fill="#6ee7ff" stroke="#6ee7ff" stroke-width="1.6"/>
<circle cx="398.0" cy="524.0" r="2.4" fill="none" stroke="#8b97a7" stroke-width="1.6"/>
<circle cx="380.0" cy="542.0" r="2.4" fill="none" stroke="#8b97a7" stroke-width="1.6"/>
<circle cx="362.0" cy="524.0" r="2.4" fill="none" stroke="#8b97a7" stroke-width="1.6"/>
<text x="380" y="580" font-family="ui-monospace,Menlo,monospace" font-size="11" fill="#e6edf3" text-anchor="middle" font-weight="400">7</text>
<circle cx="433" cy="524" r="18" fill="none" stroke="#2d3643" stroke-width="1.5"/>
<circle cx="433.0" cy="506.0" r="2.4" fill="none" stroke="#8b97a7" stroke-width="1.6"/>
<circle cx="445.7" cy="511.3" r="2.4" fill="none" stroke="#8b97a7" stroke-width="1.6"/>
<circle cx="451.0" cy="524.0" r="2.4" fill="none" stroke="#8b97a7" stroke-width="1.6"/>
<circle cx="445.7" cy="536.7" r="2.4" fill="none" stroke="#8b97a7" stroke-width="1.6"/>
<circle cx="433.0" cy="542.0" r="2.4" fill="none" stroke="#8b97a7" stroke-width="1.6"/>
<circle cx="420.3" cy="536.7" r="2.4" fill="none" stroke="#8b97a7" stroke-width="1.6"/>
<circle cx="415.0" cy="524.0" r="2.4" fill="none" stroke="#8b97a7" stroke-width="1.6"/>
<circle cx="420.3" cy="511.3" r="2.4" fill="none" stroke="#8b97a7" stroke-width="1.6"/>
<text x="433" y="580" font-family="ui-monospace,Menlo,monospace" font-size="11" fill="#8b97a7" text-anchor="middle" font-weight="400">8</text>
<circle cx="486" cy="524" r="18" fill="none" stroke="#2d3643" stroke-width="1.5"/>
<circle cx="486.0" cy="506.0" r="2.4" fill="#6ee7ff" stroke="#6ee7ff" stroke-width="1.6"/>
<circle cx="492.9" cy="507.4" r="2.4" fill="none" stroke="#8b97a7" stroke-width="1.6"/>
<circle cx="498.7" cy="511.3" r="2.4" fill="#6ee7ff" stroke="#6ee7ff" stroke-width="1.6"/>
<circle cx="502.6" cy="517.1" r="2.4" fill="#6ee7ff" stroke="#6ee7ff" stroke-width="1.6"/>
<circle cx="504.0" cy="524.0" r="2.4" fill="none" stroke="#8b97a7" stroke-width="1.6"/>
<circle cx="502.6" cy="530.9" r="2.4" fill="#6ee7ff" stroke="#6ee7ff" stroke-width="1.6"/>
<circle cx="498.7" cy="536.7" r="2.4" fill="#6ee7ff" stroke="#6ee7ff" stroke-width="1.6"/>
<circle cx="492.9" cy="540.6" r="2.4" fill="none" stroke="#8b97a7" stroke-width="1.6"/>
<circle cx="486.0" cy="542.0" r="2.4" fill="#6ee7ff" stroke="#6ee7ff" stroke-width="1.6"/>
<circle cx="479.1" cy="540.6" r="2.4" fill="#6ee7ff" stroke="#6ee7ff" stroke-width="1.6"/>
<circle cx="473.3" cy="536.7" r="2.4" fill="none" stroke="#8b97a7" stroke-width="1.6"/>
<circle cx="469.4" cy="530.9" r="2.4" fill="#6ee7ff" stroke="#6ee7ff" stroke-width="1.6"/>
<circle cx="468.0" cy="524.0" r="2.4" fill="#6ee7ff" stroke="#6ee7ff" stroke-width="1.6"/>
<circle cx="469.4" cy="517.1" r="2.4" fill="#6ee7ff" stroke="#6ee7ff" stroke-width="1.6"/>
<circle cx="473.3" cy="511.3" r="2.4" fill="none" stroke="#8b97a7" stroke-width="1.6"/>
<circle cx="479.1" cy="507.4" r="2.4" fill="#6ee7ff" stroke="#6ee7ff" stroke-width="1.6"/>
<text x="486" y="580" font-family="ui-monospace,Menlo,monospace" font-size="11" fill="#e6edf3" text-anchor="middle" font-weight="400">9</text>
<circle cx="539" cy="524" r="18" fill="none" stroke="#2d3643" stroke-width="1.5"/>
<circle cx="539.0" cy="506.0" r="2.4" fill="#6ee7ff" stroke="#6ee7ff" stroke-width="1.6"/>
<circle cx="557.0" cy="524.0" r="2.4" fill="#6ee7ff" stroke="#6ee7ff" stroke-width="1.6"/>
<circle cx="539.0" cy="542.0" r="2.4" fill="#6ee7ff" stroke="#6ee7ff" stroke-width="1.6"/>
<circle cx="521.0" cy="524.0" r="2.4" fill="none" stroke="#8b97a7" stroke-width="1.6"/>
<text x="539" y="580" font-family="ui-monospace,Menlo,monospace" font-size="11" fill="#e6edf3" text-anchor="middle" font-weight="400">10</text>
<circle cx="592" cy="524" r="18" fill="none" stroke="#2d3643" stroke-width="1.5"/>
<circle cx="592.0" cy="506.0" r="2.4" fill="#6ee7ff" stroke="#6ee7ff" stroke-width="1.6"/>
<circle cx="604.7" cy="511.3" r="2.4" fill="none" stroke="#8b97a7" stroke-width="1.6"/>
<circle cx="610.0" cy="524.0" r="2.4" fill="#6ee7ff" stroke="#6ee7ff" stroke-width="1.6"/>
<circle cx="604.7" cy="536.7" r="2.4" fill="#6ee7ff" stroke="#6ee7ff" stroke-width="1.6"/>
<circle cx="592.0" cy="542.0" r="2.4" fill="#6ee7ff" stroke="#6ee7ff" stroke-width="1.6"/>
<circle cx="579.3" cy="536.7" r="2.4" fill="none" stroke="#8b97a7" stroke-width="1.6"/>
<circle cx="574.0" cy="524.0" r="2.4" fill="#6ee7ff" stroke="#6ee7ff" stroke-width="1.6"/>
<circle cx="579.3" cy="511.3" r="2.4" fill="#6ee7ff" stroke="#6ee7ff" stroke-width="1.6"/>
<text x="592" y="580" font-family="ui-monospace,Menlo,monospace" font-size="11" fill="#e6edf3" text-anchor="middle" font-weight="400">11</text>
<circle cx="645" cy="524" r="18" fill="none" stroke="#2d3643" stroke-width="1.5"/>
<circle cx="645.0" cy="506.0" r="2.4" fill="none" stroke="#8b97a7" stroke-width="1.6"/>
<circle cx="654.0" cy="508.4" r="2.4" fill="none" stroke="#8b97a7" stroke-width="1.6"/>
<circle cx="660.6" cy="515.0" r="2.4" fill="#6ee7ff" stroke="#6ee7ff" stroke-width="1.6"/>
<circle cx="663.0" cy="524.0" r="2.4" fill="none" stroke="#8b97a7" stroke-width="1.6"/>
<circle cx="660.6" cy="533.0" r="2.4" fill="#6ee7ff" stroke="#6ee7ff" stroke-width="1.6"/>
<circle cx="654.0" cy="539.6" r="2.4" fill="none" stroke="#8b97a7" stroke-width="1.6"/>
<circle cx="645.0" cy="542.0" r="2.4" fill="none" stroke="#8b97a7" stroke-width="1.6"/>
<circle cx="636.0" cy="539.6" r="2.4" fill="#6ee7ff" stroke="#6ee7ff" stroke-width="1.6"/>
<circle cx="629.4" cy="533.0" r="2.4" fill="none" stroke="#8b97a7" stroke-width="1.6"/>
<circle cx="627.0" cy="524.0" r="2.4" fill="#6ee7ff" stroke="#6ee7ff" stroke-width="1.6"/>
<circle cx="629.4" cy="515.0" r="2.4" fill="none" stroke="#8b97a7" stroke-width="1.6"/>
<circle cx="636.0" cy="508.4" r="2.4" fill="#6ee7ff" stroke="#6ee7ff" stroke-width="1.6"/>
<text x="645" y="580" font-family="ui-monospace,Menlo,monospace" font-size="11" fill="#e6edf3" text-anchor="middle" font-weight="400">12</text>
<circle cx="698" cy="524" r="18" fill="none" stroke="#2d3643" stroke-width="1.5"/>
<circle cx="698.0" cy="506.0" r="2.4" fill="none" stroke="#8b97a7" stroke-width="1.6"/>
<circle cx="704.9" cy="507.4" r="2.4" fill="none" stroke="#8b97a7" stroke-width="1.6"/>
<circle cx="710.7" cy="511.3" r="2.4" fill="none" stroke="#8b97a7" stroke-width="1.6"/>
<circle cx="714.6" cy="517.1" r="2.4" fill="none" stroke="#8b97a7" stroke-width="1.6"/>
<circle cx="716.0" cy="524.0" r="2.4" fill="none" stroke="#8b97a7" stroke-width="1.6"/>
<circle cx="714.6" cy="530.9" r="2.4" fill="none" stroke="#8b97a7" stroke-width="1.6"/>
<circle cx="710.7" cy="536.7" r="2.4" fill="none" stroke="#8b97a7" stroke-width="1.6"/>
<circle cx="704.9" cy="540.6" r="2.4" fill="none" stroke="#8b97a7" stroke-width="1.6"/>
<circle cx="698.0" cy="542.0" r="2.4" fill="none" stroke="#8b97a7" stroke-width="1.6"/>
<circle cx="691.1" cy="540.6" r="2.4" fill="none" stroke="#8b97a7" stroke-width="1.6"/>
<circle cx="685.3" cy="536.7" r="2.4" fill="none" stroke="#8b97a7" stroke-width="1.6"/>
<circle cx="681.4" cy="530.9" r="2.4" fill="none" stroke="#8b97a7" stroke-width="1.6"/>
<circle cx="680.0" cy="524.0" r="2.4" fill="none" stroke="#8b97a7" stroke-width="1.6"/>
<circle cx="681.4" cy="517.1" r="2.4" fill="none" stroke="#8b97a7" stroke-width="1.6"/>
<circle cx="685.3" cy="511.3" r="2.4" fill="none" stroke="#8b97a7" stroke-width="1.6"/>
<circle cx="691.1" cy="507.4" r="2.4" fill="none" stroke="#8b97a7" stroke-width="1.6"/>
<text x="698" y="580" font-family="ui-monospace,Menlo,monospace" font-size="11" fill="#8b97a7" text-anchor="middle" font-weight="400">13</text>
<circle cx="751" cy="524" r="18" fill="none" stroke="#2d3643" stroke-width="1.5"/>
<circle cx="751.0" cy="506.0" r="2.4" fill="#6ee7ff" stroke="#6ee7ff" stroke-width="1.6"/>
<circle cx="765.1" cy="512.8" r="2.4" fill="none" stroke="#8b97a7" stroke-width="1.6"/>
<circle cx="768.5" cy="528.0" r="2.4" fill="#6ee7ff" stroke="#6ee7ff" stroke-width="1.6"/>
<circle cx="758.8" cy="540.2" r="2.4" fill="none" stroke="#8b97a7" stroke-width="1.6"/>
<circle cx="743.2" cy="540.2" r="2.4" fill="#6ee7ff" stroke="#6ee7ff" stroke-width="1.6"/>
<circle cx="733.5" cy="528.0" r="2.4" fill="none" stroke="#8b97a7" stroke-width="1.6"/>
<circle cx="736.9" cy="512.8" r="2.4" fill="#6ee7ff" stroke="#6ee7ff" stroke-width="1.6"/>
<text x="751" y="580" font-family="ui-monospace,Menlo,monospace" font-size="11" fill="#e6edf3" text-anchor="middle" font-weight="400">14</text>
<circle cx="804" cy="524" r="18" fill="none" stroke="#2d3643" stroke-width="1.5"/>
<circle cx="804.0" cy="506.0" r="2.4" fill="#6ee7ff" stroke="#6ee7ff" stroke-width="1.6"/>
<circle cx="810.9" cy="507.4" r="2.4" fill="none" stroke="#8b97a7" stroke-width="1.6"/>
<circle cx="816.7" cy="511.3" r="2.4" fill="#6ee7ff" stroke="#6ee7ff" stroke-width="1.6"/>
<circle cx="820.6" cy="517.1" r="2.4" fill="none" stroke="#8b97a7" stroke-width="1.6"/>
<circle cx="822.0" cy="524.0" r="2.4" fill="#6ee7ff" stroke="#6ee7ff" stroke-width="1.6"/>
<circle cx="820.6" cy="530.9" r="2.4" fill="none" stroke="#8b97a7" stroke-width="1.6"/>
<circle cx="816.7" cy="536.7" r="2.4" fill="#6ee7ff" stroke="#6ee7ff" stroke-width="1.6"/>
<circle cx="810.9" cy="540.6" r="2.4" fill="none" stroke="#8b97a7" stroke-width="1.6"/>
<circle cx="804.0" cy="542.0" r="2.4" fill="#6ee7ff" stroke="#6ee7ff" stroke-width="1.6"/>
<circle cx="797.1" cy="540.6" r="2.4" fill="none" stroke="#8b97a7" stroke-width="1.6"/>
<circle cx="791.3" cy="536.7" r="2.4" fill="#6ee7ff" stroke="#6ee7ff" stroke-width="1.6"/>
<circle cx="787.4" cy="530.9" r="2.4" fill="none" stroke="#8b97a7" stroke-width="1.6"/>
<circle cx="786.0" cy="524.0" r="2.4" fill="#6ee7ff" stroke="#6ee7ff" stroke-width="1.6"/>
<circle cx="787.4" cy="517.1" r="2.4" fill="none" stroke="#8b97a7" stroke-width="1.6"/>
<circle cx="791.3" cy="511.3" r="2.4" fill="#6ee7ff" stroke="#6ee7ff" stroke-width="1.6"/>
<circle cx="797.1" cy="507.4" r="2.4" fill="none" stroke="#8b97a7" stroke-width="1.6"/>
<text x="804" y="580" font-family="ui-monospace,Menlo,monospace" font-size="11" fill="#e6edf3" text-anchor="middle" font-weight="400">15</text>
<circle cx="857" cy="524" r="18" fill="none" stroke="#2d3643" stroke-width="1.5"/>
<circle cx="857.0" cy="506.0" r="2.4" fill="#6ee7ff" stroke="#6ee7ff" stroke-width="1.6"/>
<circle cx="872.6" cy="533.0" r="2.4" fill="#6ee7ff" stroke="#6ee7ff" stroke-width="1.6"/>
<circle cx="841.4" cy="533.0" r="2.4" fill="none" stroke="#8b97a7" stroke-width="1.6"/>
<text x="857" y="580" font-family="ui-monospace,Menlo,monospace" font-size="11" fill="#e6edf3" text-anchor="middle" font-weight="400">16</text>
</svg>