<svg xmlns="http://www.w3.org/2000/svg" width="920" height="560" viewBox="0 0 920 560" font-family="system-ui,sans-serif">
<rect x="0" y="0" width="920" height="560" rx="0" fill="#0e1116"/>
<rect x="0" y="0" width="920" height="44" rx="0" fill="#161b22"/>
<text x="24" y="28" font-family="system-ui,-apple-system,sans-serif" font-size="16" fill="#e6edf3" text-anchor="start" font-weight="600">B · Focus + list — one big ring, sidebar to switch</text>
<text x="896" y="28" font-family="system-ui,-apple-system,sans-serif" font-size="12" fill="#8b97a7" text-anchor="end" font-weight="400">FH-2 FORGE · Euclidean</text>
<rect x="24" y="64" width="470" height="470" rx="8" fill="#161b22" stroke="#2d3643" stroke-width="1"/>
<circle cx="200" cy="230" r="120" fill="none" stroke="#2d3643" stroke-width="1.5"/>
<circle cx="200.0" cy="110.0" r="11.0" fill="#6ee7ff" stroke="#6ee7ff" stroke-width="1.6"/>
<circle cx="284.9" cy="145.1" r="11.0" fill="none" stroke="#8b97a7" stroke-width="1.6"/>
<circle cx="320.0" cy="230.0" r="11.0" fill="#6ee7ff" stroke="#6ee7ff" stroke-width="1.6"/>
<circle cx="284.9" cy="314.9" r="11.0" fill="#ffd36e" stroke="#ffd36e" stroke-width="1.6"/>
<circle cx="200.0" cy="350.0" r="11.0" fill="none" stroke="#8b97a7" stroke-width="1.6"/>
<circle cx="115.1" cy="314.9" r="11.0" fill="#6ee7ff" stroke="#6ee7ff" stroke-width="1.6"/>
<circle cx="80.0" cy="230.0" r="11.0" fill="#6ee7ff" stroke="#6ee7ff" stroke-width="1.6"/>
<circle cx="115.1" cy="145.1" r="11.0" fill="none" stroke="#8b97a7" stroke-width="1.6"/>
<text x="200" y="235" font-family="ui-monospace,Menlo,monospace" font-size="26" fill="#e6edf3" text-anchor="middle" font-weight="600">5/8</text>
<text x="200" y="90" font-family="system-ui,-apple-system,sans-serif" font-size="15" fill="#e6edf3" text-anchor="middle" font-weight="600">Generator 5</text>
<rect x="48" y="380" width="200" height="32" rx="6" fill="#1c2430" stroke="#2d3643" stroke-width="1"/>
<text x="60" y="401" font-family="system-ui,-apple-system,sans-serif" font-size="12" fill="#8b97a7" text-anchor="start" font-weight="400">Pulses</text>
<text x="236" y="401" font-family="ui-monospace,Menlo,monospace" font-size="13" fill="#6ee7ff" text-anchor="end" font-weight="600">5</text>
<rect x="263" y="380" width="200" height="32" rx="6" fill="#1c2430" stroke="#2d3643" stroke-width="1"/>
<text x="275" y="401" font-family="system-ui,-apple-system,sans-serif" font-size="12" fill="#8b97a7" text-anchor="start" font-weight="400">Steps</text>
<text x="451" y="401" font-family="ui-monospace,Menlo,monospace" font-size="13" fill="#6ee7ff" text-anchor="end" font-weight="600">8</text>
<rect x="48" y="422" width="200" height="32" rx="6" fill="#1c2430" stroke="#2d3643" stroke-width="1"/>
<text x="60" y="443" font-family="system-ui,-apple-system,sans-serif" font-size="12" fill="#8b97a7" text-anchor="start" font-weight="400">Rotation</text>
<text x="236" y="443" font-family="ui-monospace,Menlo,monospace" font-size="13" fill="#6ee7ff" text-anchor="end" font-weight="600">0</text>
<rect x="263" y="422" width="200" height="32" rx="6" fill="#1c2430" stroke="#2d3643" stroke-width="1"/>
<text x="275" y="443" font-family="system-ui,-apple-system,sans-serif" font-size="12" fill="#8b97a7" text-anchor="start" font-weight="400">Rate</text>
<text x="451" y="443" font-family="ui-monospace,Menlo,monospace" font-size="13" fill="#6ee7ff" text-anchor="end" font-weight="600">1/16</text>
<rect x="48" y="464" width="200" height="32" rx="6" fill="#1c2430" stroke="#2d3643" stroke-width="1"/>
<text x="60" y="485" font-family="system-ui,-apple-system,sans-serif" font-size="12" fill="#8b97a7" text-anchor="start" font-weight="400">Gate len</text>
<text x="236" y="485" font-family="ui-monospace,Menlo,monospace" font-size="13" fill="#6ee7ff" text-anchor="end" font-weight="600">50%</text>
<rect x="263" y="464" width="200" height="32" rx="6" fill="#1c2430" stroke="#2d3643" stroke-width="1"/>
<text x="275" y="485" font-family="system-ui,-apple-system,sans-serif" font-size="12" fill="#8b97a7" text-anchor="start" font-weight="400">Accent</text>
<text x="451" y="485" font-family="ui-monospace,Menlo,monospace" font-size="13" fill="#6ee7ff" text-anchor="end" font-weight="600">every 4</text>
<rect x="48" y="506" width="200" height="32" rx="6" fill="#1c2430" stroke="#2d3643" stroke-width="1"/>
<text x="60" y="527" font-family="system-ui,-apple-system,sans-serif" font-size="12" fill="#8b97a7" text-anchor="start" font-weight="400">Reset</text>
<text x="236" y="527" font-family="ui-monospace,Menlo,monospace" font-size="13" fill="#6ee7ff" text-anchor="end" font-weight="600">off</text>
<rect x="512" y="64" width="384" height="470" rx="8" fill="#161b22" stroke="#2d3643" stroke-width="1"/>
<text x="528" y="92" font-family="system-ui,-apple-system,sans-serif" font-size="11" fill="#8b97a7" text-anchor="start" font-weight="600">GENERATORS</text>
<text x="534" y="123" font-family="ui-monospace,Menlo,monospace" font-size="12" fill="#e6edf3" text-anchor="start" font-weight="400"> 1</text>
<text x="570" y="123" font-family="ui-monospace,Menlo,monospace" font-size="12" fill="#e6edf3" text-anchor="start" font-weight="400">5 / 8</text>
<circle cx="866" cy="116" r="9" fill="none" stroke="#2d3643" stroke-width="1.5"/>
<circle cx="866.0" cy="107.0" r="1.7" fill="#6ee7ff" stroke="#6ee7ff" stroke-width="1.6"/>
<circle cx="872.4" cy="109.6" r="1.7" fill="none" stroke="#8b97a7" stroke-width="1.6"/>
<circle cx="875.0" cy="116.0" r="1.7" fill="#6ee7ff" stroke="#6ee7ff" stroke-width="1.6"/>
<circle cx="872.4" cy="122.4" r="1.7" fill="#6ee7ff" stroke="#6ee7ff" stroke-width="1.6"/>
<circle cx="866.0" cy="125.0" r="1.7" fill="none" stroke="#8b97a7" stroke-width="1.6"/>
<circle cx="859.6" cy="122.4" r="1.7" fill="#6ee7ff" stroke="#6ee7ff" stroke-width="1.6"/>
<circle cx="857.0" cy="116.0" r="1.7" fill="#6ee7ff" stroke="#6ee7ff" stroke-width="1.6"/>
<circle cx="859.6" cy="109.6" r="1.7" fill="none" stroke="#8b97a7" stroke-width="1.6"/>
<text x="534" y="149" font-family="ui-monospace,Menlo,monospace" font-size="12" fill="#e6edf3" text-anchor="start" font-weight="400"> 2</text>
<text x="570" y="149" font-family="ui-monospace,Menlo,monospace" font-size="12" fill="#e6edf3" text-anchor="start" font-weight="400">3 / 8</text>
<circle cx="866" cy="142" r="9" fill="none" stroke="#2d3643" stroke-width="1.5"/>
<circle cx="866.0" cy="133.0" r="1.7" fill="#6ee7ff" stroke="#6ee7ff" stroke-width="1.6"/>
<circle cx="872.4" cy="135.6" r="1.7" fill="none" stroke="#8b97a7" stroke-width="1.6"/>
<circle cx="875.0" cy="142.0" r="1.7" fill="none" stroke="#8b97a7" stroke-width="1.6"/>
<circle cx="872.4" cy="148.4" r="1.7" fill="#6ee7ff" stroke="#6ee7ff" stroke-width="1.6"/>
<circle cx="866.0" cy="151.0" r="1.7" fill="none" stroke="#8b97a7" stroke-width="1.6"/>
<circle cx="859.6" cy="148.4" r="1.7" fill="none" stroke="#8b97a7" stroke-width="1.6"/>
<circle cx="857.0" cy="142.0" r="1.7" fill="#6ee7ff" stroke="#6ee7ff" stroke-width="1.6"/>
<circle cx="859.6" cy="135.6" r="1.7" fill="none" stroke="#8b97a7" stroke-width="1.6"/>
<text x="534" y="175" font-family="ui-monospace,Menlo,monospace" font-size="12" fill="#e6edf3" text-anchor="start" font-weight="400"> 3</text>
<text x="570" y="175" font-family="ui-monospace,Menlo,monospace" font-size="12" fill="#e6edf3" text-anchor="start" font-weight="400">4 / 16</text>
<circle cx="866" cy="168" r="9" fill="none" stroke="#2d3643" stroke-width="1.5"/>
<circle cx="866.0" cy="159.0" r="1.7" fill="#6ee7ff" stroke="#6ee7ff" stroke-width="1.6"/>
<circle cx="869.4" cy="159.7" r="1.7" fill="none" stroke="#8b97a7" stroke-width="1.6"/>
<circle cx="872.4" cy="161.6" r="1.7" fill="none" stroke="#8b97a7" stroke-width="1.6"/>
<circle cx="874.3" cy="164.6" r="1.7" fill="none" stroke="#8b97a7" stroke-width="1.6"/>
<circle cx="875.0" cy="168.0" r="1.7" fill="#6ee7ff" stroke="#6ee7ff" stroke-width="1.6"/>
<circle cx="874.3" cy="171.4" r="1.7" fill="none" stroke="#8b97a7" stroke-width="1.6"/>
<circle cx="872.4" cy="174.4" r="1.7" fill="none" stroke="#8b97a7" stroke-width="1.6"/>
<circle cx="869.4" cy="176.3" r="1.7" fill="none" stroke="#8b97a7" stroke-width="1.6"/>
<circle cx="866.0" cy="177.0" r="1.7" fill="#6ee7ff" stroke="#6ee7ff" stroke-width="1.6"/>
<circle cx="862.6" cy="176.3" r="1.7" fill="none" stroke="#8b97a7" stroke-width="1.6"/>
<circle cx="859.6" cy="174.4" r="1.7" fill="none" stroke="#8b97a7" stroke-width="1.6"/>
<circle cx="857.7" cy="171.4" r="1.7" fill="none" stroke="#8b97a7" stroke-width="1.6"/>
<circle cx="857.0" cy="168.0" r="1.7" fill="#6ee7ff" stroke="#6ee7ff" stroke-width="1.6"/>
<circle cx="857.7" cy="164.6" r="1.7" fill="none" stroke="#8b97a7" stroke-width="1.6"/>
<circle cx="859.6" cy="161.6" r="1.7" fill="none" stroke="#8b97a7" stroke-width="1.6"/>
<circle cx="862.6" cy="159.7" r="1.7" fill="none" stroke="#8b97a7" stroke-width="1.6"/>
<text x="534" y="201" font-family="ui-monospace,Menlo,monospace" font-size="12" fill="#e6edf3" text-anchor="start" font-weight="400"> 4</text>
<text x="570" y="201" font-family="ui-monospace,Menlo,monospace" font-size="12" fill="#e6edf3" text-anchor="start" font-weight="400">7 / 16  ↻2</text>
<circle cx="866" cy="194" r="9" fill="none" stroke="#2d3643" stroke-width="1.5"/>
<circle cx="866.0" cy="185.0" r="1.7" fill="none" stroke="#8b97a7" stroke-width="1.6"/>
<circle cx="869.4" cy="185.7" r="1.7" fill="#6ee7ff" stroke="#6ee7ff" stroke-width="1.6"/>
<circle cx="872.4" cy="187.6" r="1.7" fill="none" stroke="#8b97a7" stroke-width="1.6"/>
<circle cx="874.3" cy="190.6" r="1.7" fill="#6ee7ff" stroke="#6ee7ff" stroke-width="1.6"/>
<circle cx="875.0" cy="194.0" r="1.7" fill="none" stroke="#8b97a7" stroke-width="1.6"/>
<circle cx="874.3" cy="197.4" r="1.7" fill="#6ee7ff" stroke="#6ee7ff" stroke-width="1.6"/>
<circle cx="872.4" cy="200.4" r="1.7" fill="none" stroke="#8b97a7" stroke-width="1.6"/>
<circle cx="869.4" cy="202.3" r="1.7" fill="none" stroke="#8b97a7" stroke-width="1.6"/>
<circle cx="866.0" cy="203.0" r="1.7" fill="#6ee7ff" stroke="#6ee7ff" stroke-width="1.6"/>
<circle cx="862.6" cy="202.3" r="1.7" fill="none" stroke="#8b97a7" stroke-width="1.6"/>
<circle cx="859.6" cy="200.4" r="1.7" fill="#6ee7ff" stroke="#6ee7ff" stroke-width="1.6"/>
<circle cx="857.7" cy="197.4" r="1.7" fill="none" stroke="#8b97a7" stroke-width="1.6"/>
<circle cx="857.0" cy="194.0" r="1.7" fill="#6ee7ff" stroke="#6ee7ff" stroke-width="1.6"/>
<circle cx="857.7" cy="190.6" r="1.7" fill="none" stroke="#8b97a7" stroke-width="1.6"/>
<circle cx="859.6" cy="187.6" r="1.7" fill="#6ee7ff" stroke="#6ee7ff" stroke-width="1.6"/>
<circle cx="862.6" cy="185.7" r="1.7" fill="none" stroke="#8b97a7" stroke-width="1.6"/>
<rect x="522" y="211" width="364" height="24" rx="5" fill="#13313a" stroke="#6ee7ff" stroke-width="1"/>
<text x="534" y="227" font-family="ui-monospace,Menlo,monospace" font-size="12" fill="#e6edf3" text-anchor="start" font-weight="400"> 5</text>
<text x="570" y="227" font-family="ui-monospace,Menlo,monospace" font-size="12" fill="#e6edf3" text-anchor="start" font-weight="400">2 / 5</text>
<circle cx="866" cy="220" r="9" fill="none" stroke="#2d3643" stroke-width="1.5"/>
<circle cx="866.0" cy="211.0" r="1.7" fill="#6ee7ff" stroke="#6ee7ff" stroke-width="1.6"/>
<circle cx="874.6" cy="217.2" r="1.7" fill="none" stroke="#8b97a7" stroke-width="1.6"/>
<circle cx="871.3" cy="227.3" r="1.7" fill="#6ee7ff" stroke="#6ee7ff" stroke-width="1.6"/>
<circle cx="860.7" cy="227.3" r="1.7" fill="none" stroke="#8b97a7" stroke-width="1.6"/>
<circle cx="857.4" cy="217.2" r="1.7" fill="none" stroke="#8b97a7" stroke-width="1.6"/>
<text x="534" y="253" font-family="ui-monospace,Menlo,monospace" font-size="12" fill="#e6edf3" text-anchor="start" font-weight="400"> 6</text>
<text x="570" y="253" font-family="ui-monospace,Menlo,monospace" font-size="12" fill="#e6edf3" text-anchor="start" font-weight="400">9 / 16</text>
<circle cx="866" cy="246" r="9" fill="none" stroke="#2d3643" stroke-width="1.5"/>
<circle cx="866.0" cy="237.0" r="1.7" fill="#6ee7ff" stroke="#6ee7ff" stroke-width="1.6"/>
<circle cx="869.4" cy="237.7" r="1.7" fill="none" stroke="#8b97a7" stroke-width="1.6"/>
<circle cx="872.4" cy="239.6" r="1.7" fill="#6ee7ff" stroke="#6ee7ff" stroke-width="1.6"/>
<circle cx="874.3" cy="242.6" r="1.7" fill="#6ee7ff" stroke="#6ee7ff" stroke-width="1.6"/>
<circle cx="875.0" cy="246.0" r="1.7" fill="none" stroke="#8b97a7" stroke-width="1.6"/>
<circle cx="874.3" cy="249.4" r="1.7" fill="#6ee7ff" stroke="#6ee7ff" stroke-width="1.6"/>
<circle cx="872.4" cy="252.4" r="1.7" fill="none" stroke="#8b97a7" stroke-width="1.6"/>
<circle cx="869.4" cy="254.3" r="1.7" fill="#6ee7ff" stroke="#6ee7ff" stroke-width="1.6"/>
<circle cx="866.0" cy="255.0" r="1.7" fill="none" stroke="#8b97a7" stroke-width="1.6"/>
<circle cx="862.6" cy="254.3" r="1.7" fill="#6ee7ff" stroke="#6ee7ff" stroke-width="1.6"/>
<circle cx="859.6" cy="252.4" r="1.7" fill="#6ee7ff" stroke="#6ee7ff" stroke-width="1.6"/>
<circle cx="857.7" cy="249.4" r="1.7" fill="none" stroke="#8b97a7" stroke-width="1.6"/>
<circle cx="857.0" cy="246.0" r="1.7" fill="#6ee7ff" stroke="#6ee7ff" stroke-width="1.6"/>
<circle cx="857.7" cy="242.6" r="1.7" fill="none" stroke="#8b97a7" stroke-width="1.6"/>
<circle cx="859.6" cy="239.6" r="1.7" fill="#6ee7ff" stroke="#6ee7ff" stroke-width="1.6"/>
<circle cx="862.6" cy="237.7" r="1.7" fill="none" stroke="#8b97a7" stroke-width="1.6"/>
<text x="534" y="279" font-family="ui-monospace,Menlo,monospace" font-size="12" fill="#e6edf3" text-anchor="start" font-weight="400"> 7</text>
<text x="570" y="279" font-family="ui-monospace,Menlo,monospace" font-size="12" fill="#e6edf3" text-anchor="start" font-weight="400">1 / 4</text>
<circle cx="866" cy="272" r="9" fill="none" stroke="#2d3643" stroke-width="1.5"/>
<circle cx="866.0" cy="263.0" r="1.7" fill="#6ee7ff" stroke="#6ee7ff" stroke-width="1.6"/>
<circle cx="875.0" cy="272.0" r="1.7" fill="none" stroke="#8b97a7" stroke-width="1.6"/>
<circle cx="866.0" cy="281.0" r="1.7" fill="none" stroke="#8b97a7" stroke-width="1.6"/>
<circle cx="857.0" cy="272.0" r="1.7" fill="none" stroke="#8b97a7" stroke-width="1.6"/>
<text x="534" y="305" font-family="ui-monospace,Menlo,monospace" font-size="12" fill="#8b97a7" text-anchor="start" font-weight="400"> 8</text>
<text x="570" y="305" font-family="ui-monospace,Menlo,monospace" font-size="12" fill="#8b97a7" text-anchor="start" font-weight="400">empty</text>
<circle cx="866" cy="298" r="9" fill="none" stroke="#2d3643" stroke-width="1.5"/>
<circle cx="866.0" cy="289.0" r="1.7" fill="none" stroke="#8b97a7" stroke-width="1.6"/>
<circle cx="872.4" cy="291.6" r="1.7" fill="none" stroke="#8b97a7" stroke-width="1.6"/>
<circle cx="875.0" cy="298.0" r="1.7" fill="none" stroke="#8b97a7" stroke-width="1.6"/>
<circle cx="872.4" cy="304.4" r="1.7" fill="none" stroke="#8b97a7" stroke-width="1.6"/>
<circle cx="866.0" cy="307.0" r="1.7" fill="none" stroke="#8b97a7" stroke-width="1.6"/>
<circle cx="859.6" cy="304.4" r="1.7" fill="none" stroke="#8b97a7" stroke-width="1.6"/>
<circle cx="857.0" cy="298.0" r="1.7" fill="none" stroke="#8b97a7" stroke-width="1.6"/>
<circle cx="859.6" cy="291.6" r="1.7" fill="none" stroke="#8b97a7" stroke-width="1.6"/>
<text x="534" y="331" font-family="ui-monospace,Menlo,monospace" font-size="12" fill="#e6edf3" text-anchor="start" font-weight="400"> 9</text>
<text x="570" y="331" font-family="ui-monospace,Menlo,monospace" font-size="12" fill="#e6edf3" text-anchor="start" font-weight="400">11 / 16  ↻3</text>
<circle cx="866" cy="324" r="9" fill="none" stroke="#2d3643" stroke-width="1.5"/>
<circle cx="866.0" cy="315.0" r="1.7" fill="#6ee7ff" stroke="#6ee7ff" stroke-width="1.6"/>
<circle cx="869.4" cy="315.7" r="1.7" fill="none" stroke="#8b97a7" stroke-width="1.6"/>
<circle cx="872.4" cy="317.6" r="1.7" fill="#6ee7ff" stroke="#6ee7ff" stroke-width="1.6"/>
<circle cx="874.3" cy="320.6" r="1.7" fill="#6ee7ff" stroke="#6ee7ff" stroke-width="1.6"/>
<circle cx="875.0" cy="324.0" r="1.7" fill="none" stroke="#8b97a7" stroke-width="1.6"/>
<circle cx="874.3" cy="327.4" r="1.7" fill="#6ee7ff" stroke="#6ee7ff" stroke-width="1.6"/>
<circle cx="872.4" cy="330.4" r="1.7" fill="#6ee7ff" stroke="#6ee7ff" stroke-width="1.6"/>
<circle cx="869.4" cy="332.3" r="1.7" fill="none" stroke="#8b97a7" stroke-width="1.6"/>
<circle cx="866.0" cy="333.0" r="1.7" fill="#6ee7ff" stroke="#6ee7ff" stroke-width="1.6"/>
<circle cx="862.6" cy="332.3" r="1.7" fill="#6ee7ff" stroke="#6ee7ff" stroke-width="1.6"/>
<circle cx="859.6" cy="330.4" r="1.7" fill="none" stroke="#8b97a7" stroke-width="1.6"/>
<circle cx="857.7" cy="327.4" r="1.7" fill="#6ee7ff" stroke="#6ee7ff" stroke-width="1.6"/>
<circle cx="857.0" cy="324.0" r="1.7" fill="#6ee7ff" stroke="#6ee7ff" stroke-width="1.6"/>
<circle cx="857.7" cy="320.6" r="1.7" fill="#6ee7ff" stroke="#6ee7ff" stroke-width="1.6"/>
<circle cx="859.6" cy="317.6" r="1.7" fill="none" stroke="#8b97a7" stroke-width="1.6"/>
<circle cx="862.6" cy="315.7" r="1.7" fill="#6ee7ff" stroke="#6ee7ff" stroke-width="1.6"/>
<text x="534" y="357" font-family="ui-monospace,Menlo,monospace" font-size="12" fill="#e6edf3" text-anchor="start" font-weight="400">10</text>
<text x="570" y="357" font-family="ui-monospace,Menlo,monospace" font-size="12" fill="#e6edf3" text-anchor="start" font-weight="400">3 / 4</text>
<circle cx="866" cy="350" r="9" fill="none" stroke="#2d3643" stroke-width="1.5"/>
<circle cx="866.0" cy="341.0" r="1.7" fill="#6ee7ff" stroke="#6ee7ff" stroke-width="1.6"/>
<circle cx="875.0" cy="350.0" r="1.7" fill="#6ee7ff" stroke="#6ee7ff" stroke-width="1.6"/>
<circle cx="866.0" cy="359.0" r="1.7" fill="#6ee7ff" stroke="#6ee7ff" stroke-width="1.6"/>
<circle cx="857.0" cy="350.0" r="1.7" fill="none" stroke="#8b97a7" stroke-width="1.6"/>
<text x="534" y="383" font-family="ui-monospace,Menlo,monospace" font-size="12" fill="#e6edf3" text-anchor="start" font-weight="400">11</text>
<text x="570" y="383" font-family="ui-monospace,Menlo,monospace" font-size="12" fill="#e6edf3" text-anchor="start" font-weight="400">6 / 8</text>
<circle cx="866" cy="376" r="9" fill="none" stroke="#2d3643" stroke-width="1.5"/>
<circle cx="866.0" cy="367.0" r="1.7" fill="#6ee7ff" stroke="#6ee7ff" stroke-width="1.6"/>
<circle cx="872.4" cy="369.6" r="1.7" fill="none" stroke="#8b97a7" stroke-width="1.6"/>
<circle cx="875.0" cy="376.0" r="1.7" fill="#6ee7ff" stroke="#6ee7ff" stroke-width="1.6"/>
<circle cx="872.4" cy="382.4" r="1.7" fill="#6ee7ff" stroke="#6ee7ff" stroke-width="1.6"/>
<circle cx="866.0" cy="385.0" r="1.7" fill="#6ee7ff" stroke="#6ee7ff" stroke-width="1.6"/>
<circle cx="859.6" cy="382.4" r="1.7" fill="none" stroke="#8b97a7" stroke-width="1.6"/>
<circle cx="857.0" cy="376.0" r="1.7" fill="#6ee7ff" stroke="#6ee7ff" stroke-width="1.6"/>
<circle cx="859.6" cy="369.6" r="1.7" fill="#6ee7ff" stroke="#6ee7ff" stroke-width="1.6"/>
<text x="534" y="409" font-family="ui-monospace,Menlo,monospace" font-size="12" fill="#e6edf3" text-anchor="start" font-weight="400">12</text>
<text x="570" y="409" font-family="ui-monospace,Menlo,monospace" font-size="12" fill="#e6edf3" text-anchor="start" font-weight="400">5 / 12  ↻1</text>
<circle cx="866" cy="402" r="9" fill="none" stroke="#2d3643" stroke-width="1.5"/>
<circle cx="866.0" cy="393.0" r="1.7" fill="none" stroke="#8b97a7" stroke-width="1.6"/>
<circle cx="870.5" cy="394.2" r="1.7" fill="none" stroke="#8b97a7" stroke-width="1.6"/>
<circle cx="873.8" cy="397.5" r="1.7" fill="#6ee7ff" stroke="#6ee7ff" stroke-width="1.6"/>
<circle cx="875.0" cy="402.0" r="1.7" fill="none" stroke="#8b97a7" stroke-width="1.6"/>
<circle cx="873.8" cy="406.5" r="1.7" fill="#6ee7ff" stroke="#6ee7ff" stroke-width="1.6"/>
<circle cx="870.5" cy="409.8" r="1.7" fill="none" stroke="#8b97a7" stroke-width="1.6"/>
<circle cx="866.0" cy="411.0" r="1.7" fill="none" stroke="#8b97a7" stroke-width="1.6"/>
<circle cx="861.5" cy="409.8" r="1.7" fill="#6ee7ff" stroke="#6ee7ff" stroke-width="1.6"/>
<circle cx="858.2" cy="406.5" r="1.7" fill="none" stroke="#8b97a7" stroke-width="1.6"/>
<circle cx="857.0" cy="402.0" r="1.7" fill="#6ee7ff" stroke="#6ee7ff" stroke-width="1.6"/>
<circle cx="858.2" cy="397.5" r="1.7" fill="none" stroke="#8b97a7" stroke-width="1.6"/>
<circle cx="861.5" cy="394.2" r="1.7" fill="#6ee7ff" stroke="#6ee7ff" stroke-width="1.6"/>
<text x="534" y="435" font-family="ui-monospace,Menlo,monospace" font-size="12" fill="#8b97a7" text-anchor="start" font-weight="400">13</text>
<text x="570" y="435" font-family="ui-monospace,Menlo,monospace" font-size="12" fill="#8b97a7" text-anchor="start" font-weight="400">empty</text>
<circle cx="866" cy="428" r="9" fill="none" stroke="#2d3643" stroke-width="1.5"/>
<circle cx="866.0" cy="419.0" r="1.7" fill="none" stroke="#8b97a7" stroke-width="1.6"/>
<circle cx="869.4" cy="419.7" r="1.7" fill="none" stroke="#8b97a7" stroke-width="1.6"/>
<circle cx="872.4" cy="421.6" r="1.7" fill="none" stroke="#8b97a7" stroke-width="1.6"/>
<circle cx="874.3" cy="424.6" r="1.7" fill="none" stroke="#8b97a7" stroke-width="1.6"/>
<circle cx="875.0" cy="428.0" r="1.7" fill="none" stroke="#8b97a7" stroke-width="1.6"/>
<circle cx="874.3" cy="431.4" r="1.7" fill="none" stroke="#8b97a7" stroke-width="1.6"/>
<circle cx="872.4" cy="434.4" r="1.7" fill="none" stroke="#8b97a7" stroke-width="1.6"/>
<circle cx="869.4" cy="436.3" r="1.7" fill="none" stroke="#8b97a7" stroke-width="1.6"/>
<circle cx="866.0" cy="437.0" r="1.7" fill="none" stroke="#8b97a7" stroke-width="1.6"/>
<circle cx="862.6" cy="436.3" r="1.7" fill="none" stroke="#8b97a7" stroke-width="1.6"/>
<circle cx="859.6" cy="434.4" r="1.7" fill="none" stroke="#8b97a7" stroke-width="1.6"/>
<circle cx="857.7" cy="431.4" r="1.7" fill="none" stroke="#8b97a7" stroke-width="1.6"/>
<circle cx="857.0" cy="428.0" r="1.7" fill="none" stroke="#8b97a7" stroke-width="1.6"/>
<circle cx="857.7" cy="424.6" r="1.7" fill="none" stroke="#8b97a7" stroke-width="1.6"/>
<circle cx="859.6" cy="421.6" r="1.7" fill="none" stroke="#8b97a7" stroke-width="1.6"/>
<circle cx="862.6" cy="419.7" r="1.7" fill="none" stroke="#8b97a7" stroke-width="1.6"/>
<text x="534" y="461" font-family="ui-monospace,Menlo,monospace" font-size="12" fill="#e6edf3" text-anchor="start" font-weight="400">14</text>
<text x="570" y="461" font-family="ui-monospace,Menlo,monospace" font-size="12" fill="#e6edf3" text-anchor="start" font-weight="400">4 / 7</text>
<circle cx="866" cy="454" r="9" fill="none" stroke="#2d3643" stroke-width="1.5"/>
<circle cx="866.0" cy="445.0" r="1.7" fill="#6ee7ff" stroke="#6ee7ff" stroke-width="1.6"/>
<circle cx="873.0" cy="448.4" r="1.7" fill="none" stroke="#8b97a7" stroke-width="1.6"/>
<circle cx="874.8" cy="456.0" r="1.7" fill="#6ee7ff" stroke="#6ee7ff" stroke-width="1.6"/>
<circle cx="869.9" cy="462.1" r="1.7" fill="none" stroke="#8b97a7" stroke-width="1.6"/>
<circle cx="862.1" cy="462.1" r="1.7" fill="#6ee7ff" stroke="#6ee7ff" stroke-width="1.6"/>
<circle cx="857.2" cy="456.0" r="1.7" fill="none" stroke="#8b97a7" stroke-width="1.6"/>
<circle cx="859.0" cy="448.4" r="1.7" fill="#6ee7ff" stroke="#6ee7ff" stroke-width="1.6"/>
<text x="534" y="487" font-family="ui-monospace,Menlo,monospace" font-size="12" fill="#e6edf3" text-anchor="start" font-weight="400">15</text>
<text x="570" y="487" font-family="ui-monospace,Menlo,monospace" font-size="12" fill="#e6edf3" text-anchor="start" font-weight="400">8 / 16</text>
<circle cx="866" cy="480" r="9" fill="none" stroke="#2d3643" stroke-width="1.5"/>
<circle cx="866.0" cy="471.0" r="1.7" fill="#6ee7ff" stroke="#6ee7ff" stroke-width="1.6"/>
<circle cx="869.4" cy="471.7" r="1.7" fill="none" stroke="#8b97a7" stroke-width="1.6"/>
<circle cx="872.4" cy="473.6" r="1.7" fill="#6ee7ff" stroke="#6ee7ff" stroke-width="1.6"/>
<circle cx="874.3" cy="476.6" r="1.7" fill="none" stroke="#8b97a7" stroke-width="1.6"/>
<circle cx="875.0" cy="480.0" r="1.7" fill="#6ee7ff" stroke="#6ee7ff" stroke-width="1.6"/>
<circle cx="874.3" cy="483.4" r="1.7" fill="none" stroke="#8b97a7" stroke-width="1.6"/>
<circle cx="872.4" cy="486.4" r="1.7" fill="#6ee7ff" stroke="#6ee7ff" stroke-width="1.6"/>
<circle cx="869.4" cy="488.3" r="1.7" fill="none" stroke="#8b97a7" stroke-width="1.6"/>
<circle cx="866.0" cy="489.0" r="1.7" fill="#6ee7ff" stroke="#6ee7ff" stroke-width="1.6"/>
<circle cx="862.6" cy="488.3" r="1.7" fill="none" stroke="#8b97a7" stroke-width="1.6"/>
<circle cx="859.6" cy="486.4" r="1.7" fill="#6ee7ff" stroke="#6ee7ff" stroke-width="1.6"/>
<circle cx="857.7" cy="483.4" r="1.7" fill="none" stroke="#8b97a7" stroke-width="1.6"/>
<circle cx="857.0" cy="480.0" r="1.7" fill="#6ee7ff" stroke="#6ee7ff" stroke-width="1.6"/>
<circle cx="857.7" cy="476.6" r="1.7" fill="none" stroke="#8b97a7" stroke-width="1.6"/>
<circle cx="859.6" cy="473.6" r="1.7" fill="#6ee7ff" stroke="#6ee7ff" stroke-width="1.6"/>
<circle cx="862.6" cy="471.7" r="1.7" fill="none" stroke="#8b97a7" stroke-width="1.6"/>
<text x="534" y="513" font-family="ui-monospace,Menlo,monospace" font-size="12" fill="#e6edf3" text-anchor="start" font-weight="400">16</text>
<text x="570" y="513" font-family="ui-monospace,Menlo,monospace" font-size="12" fill="#e6edf3" text-anchor="start" font-weight="400">2 / 3</text>
<circle cx="866" cy="506" r="9" fill="none" stroke="#2d3643" stroke-width="1.5"/>
<circle cx="866.0" cy="497.0" r="1.7" fill="#6ee7ff" stroke="#6ee7ff" stroke-width="1.6"/>
<circle cx="873.8" cy="510.5" r="1.7" fill="#6ee7ff" stroke="#6ee7ff" stroke-width="1.6"/>
<circle cx="858.2" cy="510.5" r="1.7" fill="none" stroke="#8b97a7" stroke-width="1.6"/>
</svg>